<svg width="271" height="72" viewBox="0 0 271 72" fill="none" xmlns="http://www.w3.org/2000/svg">
<path d="M14 48C20.6274 48 26 42.6274 26 36C26 29.3726 20.6274 24 14 24C7.37258 24 2 29.3726 2 36C2 42.6274 7.37258 48 14 48Z" stroke="#8B8B9B" stroke-width="3" stroke-linecap="round" stroke-linejoin="round"/>
<path d="M14 31.1998V40.7998" stroke="#8B8B9B" stroke-width="3" stroke-linecap="round" stroke-linejoin="round"/>
<path d="M9.19983 36H18.7998" stroke="#8B8B9B" stroke-width="3" stroke-linecap="round" stroke-linejoin="round"/>
<path d="M59.3916 47H64.1276L56.0956 24.632H50.8796L42.8476 47H47.5516L49.0236 42.744H57.9196L59.3916 47ZM56.7036 39.16H50.2396L53.4716 29.816L56.7036 39.16ZM65.9779 38.072C65.9779 43.608 69.5619 47.288 74.0739 47.288C76.8579 47.288 78.8419 46.008 79.8979 44.376V47H84.4419V23.32H79.8979V31.736C78.6819 30.072 76.4419 28.984 74.1059 28.984C69.5619 28.984 65.9779 32.536 65.9779 38.072ZM79.9299 38.136C79.9299 41.496 77.6899 43.352 75.2259 43.352C72.8259 43.352 70.5539 41.432 70.5539 38.072C70.5539 34.712 72.8259 32.92 75.2259 32.92C77.6899 32.92 79.9299 34.776 79.9299 38.136ZM87.6654 38.072C87.6654 43.608 91.2494 47.288 95.7614 47.288C98.5454 47.288 100.529 46.008 101.585 44.376V47H106.129V23.32H101.585V31.736C100.369 30.072 98.1294 28.984 95.7934 28.984C91.2494 28.984 87.6654 32.536 87.6654 38.072ZM101.617 38.136C101.617 41.496 99.3774 43.352 96.9134 43.352C94.5134 43.352 92.2414 41.432 92.2414 38.072C92.2414 34.712 94.5134 32.92 96.9134 32.92C99.3774 32.92 101.617 34.776 101.617 38.136ZM133.746 40.536C133.746 32.664 122.29 35.16 122.29 30.68C122.29 28.856 123.602 27.992 125.362 28.056C127.282 28.088 128.466 29.24 128.562 30.712H133.49C133.202 26.68 130.066 24.344 125.49 24.344C120.882 24.344 117.618 26.776 117.618 30.808C117.586 38.904 129.106 35.992 129.106 40.824C129.106 42.424 127.858 43.544 125.746 43.544C123.666 43.544 122.482 42.36 122.354 40.568H117.554C117.618 44.792 121.202 47.224 125.842 47.224C130.93 47.224 133.746 44.056 133.746 40.536ZM145.246 32.664C147.55 32.664 149.406 34.136 149.47 36.472H141.054C141.406 34.04 143.102 32.664 145.246 32.664ZM153.662 41.432H148.83C148.254 42.616 147.198 43.576 145.278 43.576C143.038 43.576 141.246 42.104 141.022 39.48H153.982C154.078 38.904 154.11 38.328 154.11 37.752C154.11 32.472 150.494 28.984 145.374 28.984C140.126 28.984 136.478 32.536 136.478 38.136C136.478 43.704 140.222 47.288 145.374 47.288C149.758 47.288 152.702 44.696 153.662 41.432ZM182.18 47H186.66V36.6C186.66 31.704 183.652 29.016 179.396 29.016C176.804 29.016 174.468 30.392 173.316 32.408C172.1 30.2 169.828 29.016 167.076 29.016C164.868 29.016 162.98 29.944 161.86 31.416V29.272H157.38V47H161.86V37.208C161.86 34.392 163.428 32.92 165.86 32.92C168.228 32.92 169.796 34.392 169.796 37.208V47H174.276V37.208C174.276 34.392 175.844 32.92 178.244 32.92C180.612 32.92 182.18 34.392 182.18 37.208V47ZM198.527 32.664C200.831 32.664 202.687 34.136 202.751 36.472H194.335C194.687 34.04 196.383 32.664 198.527 32.664ZM206.943 41.432H202.111C201.535 42.616 200.479 43.576 198.559 43.576C196.319 43.576 194.527 42.104 194.303 39.48H207.263C207.359 38.904 207.391 38.328 207.391 37.752C207.391 32.472 203.775 28.984 198.655 28.984C193.407 28.984 189.759 32.536 189.759 38.136C189.759 43.704 193.503 47.288 198.655 47.288C203.039 47.288 205.983 44.696 206.943 41.432ZM224.421 41.944C224.293 35.448 214.469 37.464 214.469 34.232C214.469 33.208 215.333 32.536 216.997 32.536C218.757 32.536 219.845 33.464 219.973 34.84H224.261C224.005 31.32 221.413 28.984 217.125 28.984C212.741 28.984 210.117 31.352 210.117 34.296C210.117 40.792 220.133 38.776 220.133 41.944C220.133 42.968 219.173 43.768 217.413 43.768C215.621 43.768 214.373 42.744 214.213 41.4H209.701C209.893 44.696 212.997 47.288 217.445 47.288C221.765 47.288 224.421 44.984 224.421 41.944ZM228.803 41.496C228.803 45.56 231.075 47 234.467 47H237.283V43.224H235.203C233.795 43.224 233.315 42.712 233.315 41.528V32.952H237.283V29.272H233.315V24.888H228.803V29.272H226.691V32.952H228.803V41.496ZM248.121 32.664C250.425 32.664 252.281 34.136 252.345 36.472H243.929C244.281 34.04 245.977 32.664 248.121 32.664ZM256.537 41.432H251.705C251.129 42.616 250.073 43.576 248.153 43.576C245.913 43.576 244.121 42.104 243.897 39.48H256.857C256.953 38.904 256.985 38.328 256.985 37.752C256.985 32.472 253.369 28.984 248.249 28.984C243.001 28.984 239.353 32.536 239.353 38.136C239.353 43.704 243.097 47.288 248.249 47.288C252.633 47.288 255.577 44.696 256.537 41.432ZM264.735 38.168C264.735 34.744 266.335 33.72 268.991 33.72H270.175V29.016C267.711 29.016 265.855 30.2 264.735 32.024V29.272H260.255V47H264.735V38.168Z" fill="#412F9C"/>
</svg>
