<svg width="16" height="17" viewBox="0 0 16 17" fill="none" xmlns="http://www.w3.org/2000/svg">
<g clip-path="url(#clip0_58_382)">
<path d="M15.3334 2.75732V6.75732H11.3334" stroke="#8B8B9B" stroke-width="2" stroke-linecap="round" stroke-linejoin="round"/>
<path d="M0.666626 13.4238V9.42383H4.66663" stroke="#8B8B9B" stroke-width="2" stroke-linecap="round" stroke-linejoin="round"/>
<path d="M2.33996 6.09046C2.67807 5.13499 3.25271 4.28073 4.01027 3.60741C4.76783 2.93409 5.6836 2.46364 6.67215 2.23997C7.6607 2.0163 8.6898 2.04669 9.66342 2.32831C10.637 2.60993 11.5235 3.13361 12.24 3.85046L15.3333 6.75713M0.666626 9.4238L3.75996 12.3305C4.47646 13.0473 5.36287 13.571 6.3365 13.8526C7.31012 14.1342 8.33922 14.1646 9.32777 13.941C10.3163 13.7173 11.2321 13.2468 11.9896 12.5735C12.7472 11.9002 13.3218 11.0459 13.66 10.0905" stroke="#8B8B9B" stroke-width="2" stroke-linecap="round" stroke-linejoin="round"/>
</g>
<defs>
<clipPath id="clip0_58_382">
<rect width="16" height="16" fill="white" transform="translate(0 0.0905762)"/>
</clipPath>
</defs>
</svg>
